<?xml version="1.0" encoding="UTF-8" standalone="no"?>
<!-- Created with Inkscape (http://www.inkscape.org/) -->

<svg
   xmlns:dc="http://purl.org/dc/elements/1.1/"
   xmlns:cc="http://creativecommons.org/ns#"
   xmlns:rdf="http://www.w3.org/1999/02/22-rdf-syntax-ns#"
   xmlns:svg="http://www.w3.org/2000/svg"
   xmlns="http://www.w3.org/2000/svg"
   xmlns:sodipodi="http://sodipodi.sourceforge.net/DTD/sodipodi-0.dtd"
   xmlns:inkscape="http://www.inkscape.org/namespaces/inkscape"
   width="105.01909mm"
   height="21.601547mm"
   viewBox="0 0 105.01909 21.601547"
   version="1.1"
   id="svg8"
   inkscape:version="0.92.3 (2405546, 2018-03-11)"
   sodipodi:docname="three-ui.svg">
  <defs
     id="defs2" />
  <sodipodi:namedview
     id="base"
     pagecolor="#ffffff"
     bordercolor="#666666"
     borderopacity="1.0"
     inkscape:pageopacity="0.0"
     inkscape:pageshadow="2"
     inkscape:zoom="1.1818216"
     inkscape:cx="318.42564"
     inkscape:cy="-125.77593"
     inkscape:document-units="cm"
     inkscape:current-layer="layer1-4"
     showgrid="false"
     objecttolerance="10000"
     guidetolerance="10000"
     inkscape:window-width="1997"
     inkscape:window-height="1259"
     inkscape:window-x="400"
     inkscape:window-y="6"
     inkscape:window-maximized="0"
     inkscape:snap-bbox="true"
     inkscape:bbox-nodes="true"
     inkscape:snap-bbox-edge-midpoints="false"
     inkscape:bbox-paths="false"
     inkscape:snap-bbox-midpoints="false"
     inkscape:snap-object-midpoints="false"
     inkscape:snap-others="true"
     inkscape:object-nodes="false"
     inkscape:snap-nodes="true"
     inkscape:snap-global="true"
     inkscape:object-paths="false"
     inkscape:snap-path-clip="false"
     inkscape:snap-tangential="true"
     inkscape:snap-perpendicular="true">
    <inkscape:grid
       type="xygrid"
       id="grid817"
       spacingx="0.49999999"
       spacingy="0.49999999"
       dotted="false"
       enabled="true"
       visible="true"
       snapvisiblegridlinesonly="true"
       color="#e33fff"
       opacity="0.1254902"
       units="cm"
       originx="33.254337"
       originy="0.0002802087" />
  </sodipodi:namedview>
  <metadata
     id="metadata5">
    <rdf:RDF>
      <cc:Work
         rdf:about="">
        <dc:format>image/svg+xml</dc:format>
        <dc:type
           rdf:resource="http://purl.org/dc/dcmitype/StillImage" />
        <dc:title></dc:title>
      </cc:Work>
    </rdf:RDF>
  </metadata>
  <g
     inkscape:label="Layer 1"
     inkscape:groupmode="layer"
     id="layer1"
     transform="translate(-0.14352991,-275.59749)">
    <g
       transform="matrix(11.719631,0,0,11.719631,2.3691255,-3129.2144)"
       id="layer1-4"
       inkscape:label="Layer 1">
      <path
         id="path829-3"
         d="m 6.4685693,291.78139 c -2.6e-6,0.16114 -0.1306292,0.29176 -0.2917644,0.29176 -0.1611352,0 -0.2917618,-0.13062 -0.2917643,-0.29176 -1.3e-6,-0.16113 0.1306264,-0.29176 0.2917643,-0.29176 0.1611379,0 0.2917656,0.13063 0.2917644,0.29176 z"
         style="font-style:normal;font-weight:normal;font-size:medium;line-height:1.25;font-family:sans-serif;letter-spacing:0px;word-spacing:0px;fill:#83a61e;fill-opacity:1;stroke:none;stroke-width:0.04410927;stroke-miterlimit:4;stroke-dasharray:none;stroke-dashoffset:0;stroke-opacity:1"
         inkscape:connector-curvature="0" />
      <path
         style="font-style:normal;font-weight:normal;font-size:medium;line-height:1.25;font-family:sans-serif;letter-spacing:0px;word-spacing:0px;fill:#646464;fill-opacity:1;stroke:none;stroke-width:0.05393785;stroke-miterlimit:4;stroke-dasharray:none;stroke-dashoffset:0;stroke-opacity:1"
         d="m 2.325037,291.04273 v 1.32255 h 0.2948119 v -0.72667 c 4.673e-4,-0.0967 0.054476,-0.18066 0.1339131,-0.22382 0.036271,-0.0197 0.077826,-0.0309 0.1220079,-0.0309 h 9.03e-5 c 0.042642,1.4e-4 0.060385,3.7e-4 0.085322,3.7e-4 v -0.29888 h -0.085322 -9.03e-5 c -0.093756,0 -0.180521,0.0231 -0.255921,0.0638 v -0.1064 z"
         id="path827-1"
         inkscape:connector-curvature="0"
         sodipodi:nodetypes="cccccscccccccc" />
      <path
         id="path825-2"
         d="m 7.4624788,292.3653 c -0.1533183,0 -0.2847341,-0.0297 -0.3942473,-0.0892 -0.1085608,-0.0603 -0.1914099,-0.14763 -0.2485472,-0.26177 -0.057137,-0.1151 -0.099969,-0.25329 -0.099969,-0.41461 v -0.51437 h 0.2948243 v 0.52427 c 0,0.15 0.048932,0.26603 0.125114,0.3481 0.076183,0.0821 0.1837915,0.1231 0.3228256,0.1231 0.1399864,0 0.2480711,-0.041 0.3242541,-0.1231 0.077135,-0.0821 0.1118648,-0.19809 0.112279,-0.3481 v -0.52427 h 0.2948242 v 0.51437 c 0,0.16132 -0.028569,0.29951 -0.085706,0.41461 -0.057137,0.11414 -0.1404624,0.20141 -0.2499756,0.26177 -0.1095131,0.0595 -0.241405,0.0892 -0.3956761,0.0892 z"
         style="font-style:normal;font-weight:normal;font-size:medium;line-height:1.25;font-family:sans-serif;letter-spacing:0px;word-spacing:0px;fill:#646464;fill-opacity:1;stroke:none;stroke-width:0.04390163;stroke-miterlimit:4;stroke-dasharray:none;stroke-dashoffset:0;stroke-opacity:1"
         inkscape:connector-curvature="0" />
      <path
         style="font-style:normal;font-weight:normal;font-size:medium;line-height:1.25;font-family:sans-serif;letter-spacing:0px;word-spacing:0px;fill:#646464;fill-opacity:1;stroke:none;stroke-width:0.04745921;stroke-miterlimit:4;stroke-dasharray:none;stroke-dashoffset:0;stroke-opacity:1"
         d="m 0.03656465,290.78255 v 1.02395 a 0.55080459,0.55462498 0 0 0 0,4e-5 0.55080459,0.55462498 0 0 0 0.550777,0.55462 v -0.29865 a 0.25421752,0.25598392 0 0 1 -0.25415729,-0.25597 0.25421752,0.25598392 0 0 1 0,-4e-5 h -0.001808 v -0.43045 H 0.58738574 V 291.0812 H 0.33137651 v -0.29865 z"
         id="path827-1-3"
         inkscape:connector-curvature="0" />
      <path
         style="fill:#646464;fill-opacity:1;stroke:none;stroke-width:0.00511986;stroke-miterlimit:4;stroke-dasharray:none;stroke-dashoffset:0;stroke-opacity:1"
         d="m 0.9058512,290.53075 v 1.83453 h 0.294812 v -0.98127 h 0.2598013 c 0.1413482,2e-5 0.255931,0.11459 0.2559651,0.25592 v 9e-5 0.72526 h 0.294856 c 0.0038,-0.25599 0.0038,-0.63996 0.00379,-0.72526 v -9e-5 c -5.2e-6,-0.30628 -0.2483015,-0.55457 -0.5546132,-0.55461 -0.1279914,5e-5 -0.2133183,5e-5 -0.2598013,0.004 v -0.55845 z"
         id="path1194-7-6-8"
         inkscape:connector-curvature="0"
         sodipodi:nodetypes="ccccccccccccccc" />
      <path
         id="path827-1-2-0-5"
         d="m -0.08287447,291.38402 v -0.29483 h 0.1279904 v 0.29483 z"
         style="font-style:normal;font-weight:normal;font-size:medium;line-height:1.25;font-family:sans-serif;letter-spacing:0px;word-spacing:0px;fill:#646464;fill-opacity:1;stroke:none;stroke-width:0.01677927;stroke-miterlimit:4;stroke-dasharray:none;stroke-dashoffset:0;stroke-opacity:1"
         inkscape:connector-curvature="0" />
      <path
         style="fill:#646464;fill-opacity:1;stroke:none;stroke-width:0.00511961;stroke-miterlimit:4;stroke-dasharray:none;stroke-dashoffset:0;stroke-opacity:1"
         d="m 3.6889058,291.08537 c -0.3063017,0 -0.5546067,0.24831 -0.5546133,0.55461 v 4e-5 0.17065 4e-5 c 6.6e-6,0.3063 0.2483116,0.55461 0.5546133,0.55462 h 4.51e-5 v -5e-5 h 0.3412869 v -0.29865 h -0.341288 v 5e-5 h -4.52e-5 c -0.1098608,-1.5e-4 -0.2073798,-0.0704 -0.2423402,-0.17453 h 0.7969975 v -0.0815 -0.17065 -0.0427 l -9.053e-4,-0.004 c -0.022266,-0.28871 -0.2641867,-0.50813 -0.5537508,-0.5084 z m 0,0.29864 c 0.1248935,3e-5 0.2315368,0.0902 0.2523493,0.21333 H 3.4368208 c 0.020796,-0.12305 0.1272914,-0.21317 0.252085,-0.21333 z"
         id="path1194-7-6-0-8"
         inkscape:connector-curvature="0"
         sodipodi:nodetypes="cccccccccccccccccccccccc" />
      <path
         id="path827-1-1"
         d="M 8.7446414,292.36528 H 8.4498172 v -1.27991 h 0.2948242 z"
         style="font-style:normal;font-weight:normal;font-size:medium;line-height:1.25;font-family:sans-serif;letter-spacing:0px;word-spacing:0px;fill:#646464;fill-opacity:1;stroke:none;stroke-width:0.05306081;stroke-miterlimit:4;stroke-dasharray:none;stroke-dashoffset:0;stroke-opacity:1"
         inkscape:connector-curvature="0" />
      <path
         style="fill:#646464;fill-opacity:1;stroke:none;stroke-width:0.00511961;stroke-miterlimit:4;stroke-dasharray:none;stroke-dashoffset:0;stroke-opacity:1"
         d="m 5.0566387,291.08583 c -0.3063016,0 -0.5546067,0.24831 -0.5546132,0.55461 v 5e-5 0.17064 4e-5 c 6.5e-6,0.30631 0.2483116,0.55461 0.5546132,0.55462 h 4.51e-5 v -5e-5 h 0.3412869 v -0.29865 h -0.341288 v 5e-5 h -4.51e-5 c -0.1098609,-1.4e-4 -0.2073798,-0.0704 -0.2423403,-0.17453 h 0.7969975 v -0.0815 -0.17064 -0.0427 l -9.053e-4,-0.004 c -0.022266,-0.28871 -0.2641866,-0.50813 -0.5537508,-0.5084 z m 0,0.29864 c 0.1248936,3e-5 0.2315369,0.0902 0.2523493,0.21333 H 4.8045537 c 0.020796,-0.12305 0.1272914,-0.21317 0.252085,-0.21333 z"
         id="path1194-7-6-0-8-2"
         inkscape:connector-curvature="0"
         sodipodi:nodetypes="cccccccccccccccccccccccc" />
    </g>
  </g>
</svg>
