<svg height='100px' width='100px'  fill="#000000" xmlns="http://www.w3.org/2000/svg" xmlns:xlink="http://www.w3.org/1999/xlink" version="1.1" x="0px" y="0px" viewBox="0 0 100 100" enable-background="new 0 0 100 100" xml:space="preserve"><path fill="#000000" d="M94.997,44.037c-0.004-0.012-0.013-0.021-0.022-0.033c-0.013-0.01-0.027-0.02-0.045-0.027L50.015,22.654  c-0.012-0.006-0.025-0.01-0.041-0.012c-0.014-0.004-0.029-0.006-0.047-0.006c-0.016,0-0.031,0.002-0.045,0.006  c-0.016,0.002-0.029,0.006-0.041,0.012L5.071,43.976c-0.02,0.008-0.033,0.018-0.045,0.027c-0.012,0.012-0.018,0.021-0.023,0.033  c-0.004,0.012-0.004,0.021,0,0.033c0.004,0.01,0.012,0.02,0.021,0.027L50.1,77.321c0.02,0.014,0.041,0.024,0.064,0.03  c0.021,0.006,0.047,0.011,0.07,0.011c0.025,0,0.049-0.005,0.072-0.011s0.045-0.018,0.064-0.03l44.604-33.226  c0.012-0.008,0.02-0.018,0.022-0.027C95.001,44.058,95.001,44.048,94.997,44.037z M71.857,39.861l6.031-3.787l7.967,3.789  l-5.963,4.051L71.857,39.861l-0.227-0.113l-7.496-3.783l6.081-3.538l0.001,0.001l7.447,3.541l-6.033,3.777L71.857,39.861z   M49.837,44.037l-7.512,4.361l-7.02-4.361l7.498-4.064L49.837,44.037z M43.015,39.857l6.988-3.787l7.029,3.789l-6.984,4.055  L43.015,39.857z M50.05,44.16l7.56,4.367l-7.508,4.702l-7.563-4.699L50.05,44.16z M50.261,44.037l6.982-4.063l7.537,4.063  l-6.962,4.359L50.261,44.037z M57.441,39.859l6.511-3.787l7.496,3.789l-6.474,4.053L57.441,39.859z M57.229,39.746L50.2,35.962  l6.528-3.539l7.011,3.541L57.229,39.746z M50.003,35.855l-6.572-3.537l6.533-3.314l6.568,3.318L50.003,35.855z M49.806,35.962  l-6.988,3.781l-6.561-3.783l6.977-3.541L49.806,35.962z M42.606,39.857l-7.498,4.057l-6.529-4.057l7.467-3.791L42.606,39.857z   M34.882,44.037L26.819,48.4l-6.477-4.363l8.01-4.066L34.882,44.037z M35.079,44.16l7.02,4.369l-8.102,4.703l-6.982-4.701  L35.079,44.16z M42.31,48.662l7.563,4.709l-8.119,5.084l-7.545-5.08L42.31,48.662z M50.103,53.516l8.174,5.088l-8.115,5.517  l-8.18-5.511L50.103,53.516z M50.329,53.371l7.508-4.711l8.146,4.708l-7.479,5.082l0.123,0.077l-0.125-0.077L50.329,53.371z   M58.048,48.527l6.959-4.367l8.101,4.367l-6.914,4.698L58.048,48.527z M65.204,44.037l6.471-4.063l8.039,4.063l-6.412,4.357  L65.204,44.037z M62.831,28.914l-6.115,3.309l0.197,0.1l6.114-3.314l6.98,3.318l-6.086,3.533l-7.01-3.535l-0.197-0.102l-6.568-3.313  l6.13-3.111L62.831,28.914z M49.929,22.779l6.164,2.932l-6.131,3.105l-6.168-3.111L49.929,22.779z M43.61,25.792l6.168,3.117  l-6.533,3.309l-6.158-3.313L43.61,25.792z M36.89,29l6.158,3.32l-6.977,3.533l-6.133-3.539L36.89,29z M29.728,32.416l6.135,3.543  l-7.467,3.783l-6.092-3.785L29.728,32.416z M22.079,36.064l6.09,3.793l-8.01,4.057l-6.027-4.059L22.079,36.064z M5.366,44.037  l8.525-4.068l6.025,4.068L11.302,48.4L5.366,44.037z M11.481,48.533L20.1,44.16l6.475,4.371l-8.695,4.706L11.481,48.533z   M18.073,53.377l8.697-4.713l6.98,4.711l-8.762,5.086L18.073,53.377z M25.198,58.615l8.764-5.098l7.545,5.092l-8.813,5.518  L25.198,58.615z M32.923,64.295l8.813-5.529l8.18,5.521l-8.836,6.004L32.923,64.295z M50.235,77.021l-8.908-6.549l8.836-6.019  l8.899,6.008L50.235,77.021z M59.311,70.279l-8.898-5.992l8.113-5.529l8.863,5.52L59.311,70.279z M67.614,64.109l-8.861-5.506  h-0.001l7.479-5.095l8.805,5.089L67.614,64.109z M75.241,58.443l-8.804-5.076l6.912-4.709l8.729,4.706L75.241,58.443z   M82.271,53.223l-8.727-4.698l6.41-4.365l8.639,4.365L82.271,53.223z M88.771,48.392l-8.637-4.355l5.961-4.061l8.539,4.061  L88.771,48.392z"></path></svg>